<svg width="30" height="30" fill="none" xmlns="http://www.w3.org/2000/svg"><path d="M15 8.617a6.738 6.738 0 106.738 6.738A6.746 6.746 0 0015 8.617zm0 11.719a4.98 4.98 0 110-9.962 4.98 4.98 0 010 9.962zM21.445 1H8.555a7.92 7.92 0 00-7.91 7.91V21.8a7.92 7.92 0 007.91 7.91h12.89a7.92 7.92 0 007.91-7.91V8.91A7.92 7.92 0 0021.445 1zm6.153 20.8a6.16 6.16 0 01-6.153 6.153H8.555a6.16 6.16 0 01-6.153-6.152V8.91a6.16 6.16 0 016.153-6.153h12.89a6.16 6.16 0 016.153 6.152V21.8zM24.082 7.739a1.465 1.465 0 11-2.93 0 1.465 1.465 0 012.93 0z" fill="#000"/></svg>