<svg width="35" height="50" fill="none" xmlns="http://www.w3.org/2000/svg"><path d="M17.5 48.814l-1.077-1.204C15.75 46.942 0 28.486 0 17.386 0 7.756 7.808 0 17.5 0S35 7.757 35 17.386c0 11.1-15.75 29.556-16.423 30.358l-1.077 1.07zm0-46.14c-8.212 0-14.808 6.554-14.808 14.712C2.692 25.945 14 40.389 17.5 44.668c3.5-4.28 14.808-18.723 14.808-27.282 0-8.158-6.596-14.711-14.808-14.711z" fill="#fff"/><path d="M17.5 24.072c-3.77 0-6.73-2.942-6.73-6.686 0-3.745 2.96-6.687 6.73-6.687 3.77 0 6.73 2.942 6.73 6.687 0 3.744-2.96 6.686-6.73 6.686zm0-10.698c-2.289 0-4.039 1.738-4.039 4.012 0 2.273 1.75 4.012 4.039 4.012 2.288 0 4.038-1.739 4.038-4.012 0-2.274-1.75-4.012-4.038-4.012z" fill="#fff"/></svg>