<svg width="29" height="41" fill="none" xmlns="http://www.w3.org/2000/svg"><g clip-path="url(#clip0_318_134)" fill="#000"><path d="M14.5 40.446l-.892-.997C13.05 38.895 0 23.603 0 14.405 0 6.427 6.47 0 14.5 0 22.53 0 29 6.427 29 14.405c0 9.198-13.05 24.49-13.608 25.154l-.892.887zm0-38.23c-6.804 0-12.27 5.43-12.27 12.19 0 7.091 9.37 19.059 12.27 22.605 2.9-3.546 12.27-15.514 12.27-22.606 0-6.759-5.466-12.189-12.27-12.189z"/><path d="M14.5 19.946c-3.123 0-5.577-2.438-5.577-5.54 0-3.103 2.454-5.541 5.577-5.541 3.123 0 5.577 2.438 5.577 5.54 0 3.103-2.454 5.54-5.577 5.54zm0-8.865c-1.896 0-3.346 1.44-3.346 3.324s1.45 3.325 3.346 3.325c1.896 0 3.346-1.44 3.346-3.325 0-1.883-1.45-3.324-3.346-3.324z"/></g><defs><clipPath id="clip0_318_134"><path fill="#fff" d="M0 0h29v41H0z"/></clipPath></defs></svg>