<svg width="119" height="34" fill="none" xmlns="http://www.w3.org/2000/svg"><path d="M11.032 27.336c-2.8 0-4.984-.775-6.552-2.324-1.55-1.55-2.324-3.761-2.324-6.636V7.4h4.536v10.808c0 3.51 1.456 5.264 4.368 5.264 1.419 0 2.501-.42 3.248-1.26.747-.859 1.12-2.193 1.12-4.004V7.4h4.48v10.976c0 2.875-.784 5.087-2.352 6.636-1.55 1.55-3.724 2.324-6.524 2.324zM42.366 7.4V27h-3.724L28.87 15.1V27h-4.48V7.4h3.752l9.744 11.9V7.4h4.48zm4.638 0h4.536V27h-4.536V7.4zm30.383 21.7a6.24 6.24 0 01-2.324 1.792c-.896.41-1.885.616-2.968.616-1.456 0-2.772-.317-3.948-.952-1.176-.616-2.52-1.717-4.032-3.304-1.773-.224-3.36-.793-4.76-1.708a9.81 9.81 0 01-3.248-3.528c-.765-1.456-1.148-3.061-1.148-4.816 0-1.923.457-3.65 1.372-5.18.933-1.55 2.212-2.763 3.836-3.64 1.643-.877 3.481-1.316 5.516-1.316s3.864.439 5.488 1.316c1.624.877 2.903 2.09 3.836 3.64.933 1.53 1.4 3.257 1.4 5.18 0 2.277-.644 4.275-1.932 5.992-1.27 1.717-2.959 2.912-5.068 3.584.467.485.915.83 1.344 1.036a3.15 3.15 0 001.428.336c1.213 0 2.278-.485 3.192-1.456l2.016 2.408zM59.551 17.2c0 1.213.261 2.296.784 3.248a5.927 5.927 0 002.212 2.24c.934.523 1.979.784 3.136.784s2.203-.261 3.136-.784a5.727 5.727 0 002.184-2.24c.541-.952.812-2.035.812-3.248s-.27-2.296-.812-3.248a5.535 5.535 0 00-2.184-2.212c-.933-.541-1.978-.812-3.136-.812-1.157 0-2.203.27-3.136.812a5.726 5.726 0 00-2.212 2.212c-.523.952-.784 2.035-.784 3.248zm28.973 10.136c-2.8 0-4.984-.775-6.552-2.324-1.55-1.55-2.324-3.761-2.324-6.636V7.4h4.536v10.808c0 3.51 1.456 5.264 4.368 5.264 1.419 0 2.501-.42 3.248-1.26.747-.859 1.12-2.193 1.12-4.004V7.4h4.48v10.976c0 2.875-.784 5.087-2.352 6.636-1.55 1.55-3.724 2.324-6.524 2.324zm28.535-3.976V27h-15.176V7.4h14.812v3.64h-10.304v4.256h9.1v3.528h-9.1v4.536h10.668z" fill="#fff"/></svg>