<svg width="271" height="78" fill="none" xmlns="http://www.w3.org/2000/svg"><path d="M25.216 62.768c-6.4 0-11.392-1.77-14.976-5.312-3.541-3.541-5.312-8.597-5.312-15.168V17.2h10.368v24.704c0 8.021 3.328 12.032 9.984 12.032 3.243 0 5.717-.96 7.424-2.88 1.707-1.963 2.56-5.013 2.56-9.152V17.2h10.24v25.088c0 6.57-1.792 11.627-5.376 15.168-3.541 3.541-8.512 5.312-14.912 5.312zM96.837 17.2V62h-8.511L65.99 34.8V62H55.75V17.2h8.576l22.272 27.2V17.2h10.24zm10.6 0h10.368V62h-10.368V17.2zm69.448 49.6a14.262 14.262 0 01-5.312 4.096c-2.048.939-4.309 1.408-6.784 1.408-3.328 0-6.336-.725-9.024-2.176-2.688-1.408-5.76-3.925-9.216-7.552-4.053-.512-7.68-1.813-10.88-3.904-3.157-2.09-5.632-4.779-7.424-8.064-1.749-3.328-2.624-6.997-2.624-11.008 0-4.395 1.045-8.341 3.136-11.84 2.133-3.541 5.056-6.315 8.768-8.32 3.755-2.005 7.957-3.008 12.608-3.008 4.651 0 8.832 1.003 12.544 3.008 3.712 2.005 6.635 4.779 8.768 8.32 2.133 3.499 3.2 7.445 3.2 11.84 0 5.205-1.472 9.77-4.416 13.696-2.901 3.925-6.763 6.656-11.584 8.192 1.067 1.11 2.091 1.899 3.072 2.368a7.201 7.201 0 003.264.768c2.773 0 5.205-1.11 7.296-3.328l4.608 5.504zm-40.768-27.2c0 2.773.597 5.248 1.792 7.424 1.237 2.176 2.923 3.883 5.056 5.12 2.133 1.195 4.523 1.792 7.168 1.792 2.645 0 5.035-.597 7.168-1.792a13.094 13.094 0 004.992-5.12c1.237-2.176 1.856-4.65 1.856-7.424 0-2.773-.619-5.248-1.856-7.424-1.195-2.176-2.859-3.861-4.992-5.056-2.133-1.237-4.523-1.856-7.168-1.856-2.645 0-5.035.619-7.168 1.856-2.133 1.195-3.819 2.88-5.056 5.056-1.195 2.176-1.792 4.65-1.792 7.424zm66.224 23.168c-6.4 0-11.392-1.77-14.976-5.312-3.541-3.541-5.312-8.597-5.312-15.168V17.2h10.368v24.704c0 8.021 3.328 12.032 9.984 12.032 3.243 0 5.717-.96 7.424-2.88 1.707-1.963 2.56-5.013 2.56-9.152V17.2h10.24v25.088c0 6.57-1.792 11.627-5.376 15.168-3.541 3.541-8.512 5.312-14.912 5.312zm65.221-9.088V62h-34.688V17.2h33.856v8.32h-23.552v9.728h20.8v8.064h-20.8V53.68h24.384z" fill="#fff"/></svg>