<svg width="30" height="25" fill="none" xmlns="http://www.w3.org/2000/svg"><g clip-path="url(#clip0_318_131)"><path d="M4.62.134h20.76a4.353 4.353 0 014.345 4.106l.007.246v15.402a4.353 4.353 0 01-4.106 4.346l-.247.007H4.622a4.353 4.353 0 01-4.346-4.106l-.007-.247V4.486A4.353 4.353 0 014.374.14l.247-.006H25.38 4.62zm23.103 7.908l-12.26 6.375a1.007 1.007 0 01-.776.063l-.15-.063-12.26-6.375v11.846a2.344 2.344 0 002.15 2.336l.194.008H25.38a2.344 2.344 0 002.335-2.152l.008-.192V8.042zm-2.343-5.9H4.62a2.344 2.344 0 00-2.335 2.152l-.008.192v1.292L15 12.394l12.723-6.616V4.486a2.344 2.344 0 00-2.152-2.335l-.192-.008z" fill="#000"/></g><defs><clipPath id="clip0_318_131"><path fill="#fff" d="M0 0h30v24.375H0z"/></clipPath></defs></svg>