<svg width="30" height="30" fill="none" xmlns="http://www.w3.org/2000/svg"><path d="M23.198 29.336a4.088 4.088 0 01-.869-.096A29.442 29.442 0 017.9 21.643 28.4 28.4 0 01.084 7.533a3.977 3.977 0 011.173-3.715L4.73.475A1.737 1.737 0 016.067.006a1.736 1.736 0 011.259.755l4.341 6.417a1.39 1.39 0 01-.095 1.65l-2.18 2.604a16.444 16.444 0 003.62 5.114 16.722 16.722 0 005.271 3.551l2.7-2.144a1.424 1.424 0 011.615-.104l6.556 4.237a1.736 1.736 0 01.356 2.7l-3.387 3.351a4.115 4.115 0 01-2.925 1.199zM5.928 1.726L2.455 5.067a2.206 2.206 0 00-.651 2.084 26.655 26.655 0 007.302 13.25 27.698 27.698 0 0013.58 7.145 2.387 2.387 0 002.17-.642l3.386-3.352-6.33-4.09-2.9 2.31a.87.87 0 01-.798.148 17.417 17.417 0 01-6.39-4.124 16.923 16.923 0 01-4.23-6.252.868.868 0 01.21-.825l2.344-2.804-4.22-6.19z" fill="#D5426E"/></svg>